<?xml version="1.0" encoding="UTF-8"?>
<svg version="1.1" xmlns="http://www.w3.org/2000/svg" width="58" height="58">
<path d="M0 0 C19.14 0 38.28 0 58 0 C58 19.14 58 38.28 58 58 C38.86 58 19.72 58 0 58 C0 38.86 0 19.72 0 0 Z " fill="#D0D0D0" transform="translate(0,0)"/>
<path d="M0 0 C19.14 0 38.28 0 58 0 C58 10.23 58 20.46 58 31 C57.34 31 56.68 31 56 31 C55.505 23.575 55.505 23.575 55 16 C54.34 16 53.68 16 53 16 C50 9.375 50 9.375 50 6 C49.34 6 48.68 6 48 6 C48 5.34 48 4.68 48 4 C46.20541055 4.22807491 44.41424551 4.48322303 42.625 4.75 C41.62726562 4.88921875 40.62953125 5.0284375 39.6015625 5.171875 C36.86518324 5.73761286 36.86518324 5.73761286 35.7109375 8.015625 C35.47632813 8.67046875 35.24171875 9.3253125 35 10 C34 11 34 11 30.125 11.375 C27.91796875 11.3671875 27.91796875 11.3671875 26 11 C24.96986723 9.35178756 23.96885372 7.68496298 23 6 C19.12418883 5.57718424 15.71606605 5.81085886 12 7 C11.8453125 8.0828125 11.8453125 8.0828125 11.6875 9.1875 C10.91724544 12.33854139 9.77031298 14.28130507 8 17 C7.12099093 18.37244055 6.24624928 19.74762035 5.375 21.125 C4.94960937 21.78757812 4.52421875 22.45015625 4.0859375 23.1328125 C2.24517453 26.29786538 1.86304915 28.91474358 1.875 32.5 C1.87242187 33.2734375 1.86984375 34.046875 1.8671875 34.84375 C1.91854187 37.18447017 1.91854187 37.18447017 3 40 C3.66 40 4.32 40 5 40 C6.41634833 42.83269666 6.3463005 45.47466438 6.5625 48.625 C6.64628906 49.81351563 6.73007813 51.00203125 6.81640625 52.2265625 C6.87699219 53.14179687 6.93757812 54.05703125 7 55 C7.61875 54.690625 8.2375 54.38125 8.875 54.0625 C10.25 53.375 11.625 52.6875 13 52 C12.835 51.195625 12.67 50.39125 12.5 49.5625 C11.90752652 45.34112648 11.91493291 41.25335455 12 37 C13.33333333 37 14.66666667 37 16 37 C16 41.29 16 45.58 16 50 C17.485 49.505 17.485 49.505 19 49 C19.37125 48.195625 19.7425 47.39125 20.125 46.5625 C22.67800791 43.07338919 25.01317563 42.97857074 29.13671875 42.26171875 C29.75160156 42.17535156 30.36648437 42.08898438 31 42 C31.33 42.66 31.66 43.32 32 44 C32.66 44.20625 33.32 44.4125 34 44.625 C36 46 36 46 36.4140625 47.88427734 C36.609375 49.92285156 36.8046875 51.96142578 37 54 C38.89685547 54.09087891 38.89685547 54.09087891 40.83203125 54.18359375 C42.49219871 54.26800904 44.15235437 54.35265655 45.8125 54.4375 C46.64587891 54.47681641 47.47925781 54.51613281 48.33789062 54.55664062 C49.54155273 54.61948242 49.54155273 54.61948242 50.76953125 54.68359375 C51.87711792 54.73858032 51.87711792 54.73858032 53.00708008 54.79467773 C55 55 55 55 58 56 C58 56.66 58 57.32 58 58 C38.86 58 19.72 58 0 58 C0 38.86 0 19.72 0 0 Z " fill="#F5F5F5" transform="translate(0,0)"/>
<path d="M0 0 C1.9375 1.25 1.9375 1.25 3 3 C3 4.32 3 5.64 3 7 C4.45880109 6.85892253 5.91703551 6.71197585 7.375 6.5625 C8.18710937 6.48128906 8.99921875 6.40007813 9.8359375 6.31640625 C12.04272805 6.10909886 12.04272805 6.10909886 14 5 C14 6.32 14 7.64 14 9 C12.96101563 9.01417969 11.92203125 9.02835938 10.8515625 9.04296875 C2.51400532 9.27809727 -5.1727868 9.58975557 -12 15 C-14.17628715 18.08529282 -14.17628715 18.08529282 -15 21 C-14.34 21 -13.68 21 -13 21 C-13 20.34 -13 19.68 -13 19 C-11.68 19 -10.36 19 -9 19 C-8.875 24.75 -8.875 24.75 -10 27 C-11.32 27 -12.64 27 -14 27 C-14.66 26.01 -15.32 25.02 -16 24 C-16.99 23.67 -17.98 23.34 -19 23 C-17.92230023 29.73494956 -17.92230023 29.73494956 -15.375 36 C-13.39959037 40.30998464 -13.75095032 44.33262452 -14 49 C-14.66 49 -15.32 49 -16 49 C-16.06058594 48.32453125 -16.12117188 47.6490625 -16.18359375 46.953125 C-16.30927734 45.61507812 -16.30927734 45.61507812 -16.4375 44.25 C-16.51871094 43.36828125 -16.59992187 42.4865625 -16.68359375 41.578125 C-16.96238465 39.30649548 -17.38790577 37.20148177 -18 35 C-18.66 35 -19.32 35 -20 35 C-22.71828789 30.92256816 -22.62585827 27.78781574 -22 23 C-21.01298806 20.10626044 -19.58312337 17.60806343 -18 15 C-17.48308594 14.13632812 -16.96617188 13.27265625 -16.43359375 12.3828125 C-15.39024038 10.64808039 -14.33634415 8.91962335 -13.26953125 7.19921875 C-11.8703414 4.9450533 -11.8703414 4.9450533 -11 2 C-7.55656101 -0.51635926 -4.1355081 -0.37595528 0 0 Z " fill="#828282" transform="translate(23,5)"/>
<path d="M0 0 C0.99 3.3 1.98 6.6 3 10 C3.66 10 4.32 10 5 10 C6.03590199 15.05002222 6.10251672 19.87416389 6 25 C6.66 25 7.32 25 8 25 C8 32.59 8 40.18 8 48 C6.35 48 4.7 48 3 48 C3.33 47.01 3.66 46.02 4 45 C4.09176662 43.57779056 4.13066478 42.15172782 4.1328125 40.7265625 C4.13410156 39.9015625 4.13539062 39.0765625 4.13671875 38.2265625 C4.13091797 36.93878906 4.13091797 36.93878906 4.125 35.625 C4.12886719 34.77421875 4.13273437 33.9234375 4.13671875 33.046875 C4.13026536 28.90380091 4.04724035 25.03935564 3 21 C2.01 20.67 1.02 20.34 0 20 C0 19.34 0 18.68 0 18 C-1.98 18 -3.96 18 -6 18 C-6 20.64 -6 23.28 -6 26 C-7.98 26 -9.96 26 -12 26 C-12 24.02 -12 22.04 -12 20 C-11.360625 19.7525 -10.72125 19.505 -10.0625 19.25 C-7.81258459 18.18437567 -7.81258459 18.18437567 -7.25 15.875 C-7.1675 15.25625 -7.085 14.6375 -7 14 C-7.99 14 -8.98 14 -10 14 C-10.33 12.02 -10.66 10.04 -11 8 C-7.05272412 7.82057837 -4.4019487 7.90649311 -1 10 C-1.33 7.36 -1.66 4.72 -2 2 C-6.455 2.495 -6.455 2.495 -11 3 C-11 2.34 -11 1.68 -11 1 C-6.92630576 -1.03684712 -4.41062136 -1.0257259 0 0 Z " fill="#787878" transform="translate(50,6)"/>
<path d="M0 0 C0 2.97 0 5.94 0 9 C1.48113281 8.98839844 2.96226563 8.97679687 4.48828125 8.96484375 C6.42968624 8.95546498 8.37109259 8.94636487 10.3125 8.9375 C11.28896484 8.92912109 12.26542969 8.92074219 13.27148438 8.91210938 C14.20927734 8.90888672 15.14707031 8.90566406 16.11328125 8.90234375 C17.40939331 8.89448853 17.40939331 8.89448853 18.73168945 8.88647461 C21 9 21 9 24 10 C24 10.66 24 11.32 24 12 C11.46 12 -1.08 12 -14 12 C-13 3 -13 3 -10.9375 0.375 C-6.82194138 -1.5514317 -4.41225441 -0.89740768 0 0 Z " fill="#F9F9F8" transform="translate(34,46)"/>
<path d="M0 0 C1.33333333 0 2.66666667 0 4 0 C4 4.29 4 8.58 4 13 C4.99 12.67 5.98 12.34 7 12 C7.37125 11.195625 7.7425 10.39125 8.125 9.5625 C10.67800791 6.07338919 13.01317563 5.97857074 17.13671875 5.26171875 C17.75160156 5.17535156 18.36648437 5.08898438 19 5 C19.33 5.66 19.66 6.32 20 7 C20.99773438 7.41378906 20.99773438 7.41378906 22.015625 7.8359375 C24 9 24 9 24.609375 11.1640625 C24.65578125 11.97617187 24.7021875 12.78828125 24.75 13.625 C24.80671875 14.44226562 24.8634375 15.25953125 24.921875 16.1015625 C24.94765625 16.72804688 24.9734375 17.35453125 25 18 C24.01 18 23.02 18 22 18 C22 15.03 22 12.06 22 9 C16.68656588 8.67431026 16.68656588 8.67431026 11.625 9.9375 C9.05529025 13.19905468 8.64299941 16.96433263 8 21 C5.91695462 21.05418326 3.83350232 21.09287551 1.75 21.125 C0.58984375 21.14820312 -0.5703125 21.17140625 -1.765625 21.1953125 C-4.82786046 21.0103949 -6.44202751 20.60823023 -9 19 C-9 18.01 -9 17.02 -9 16 C-8.34 16 -7.68 16 -7 16 C-7 12.37 -7 8.74 -7 5 C-6.67 5 -6.34 5 -6 5 C-5.67 9.29 -5.34 13.58 -5 18 C-3.68 17.34 -2.36 16.68 -1 16 C-0.34 15.67 0.32 15.34 1 15 C0.835 14.195625 0.67 13.39125 0.5 12.5625 C-0.09247348 8.34112648 -0.08506709 4.25335455 0 0 Z " fill="#D4D4D4" transform="translate(12,37)"/>
<path d="M0 0 C0.99 0.495 0.99 0.495 2 1 C2 1.66 2 2.32 2 3 C2.66 3 3.32 3 4 3 C3.67 3.969375 3.34 4.93875 3 5.9375 C1.47119908 11.26119683 1.24412593 16.73237778 3 22 C3.66 22 4.32 22 5 22 C5 26.29 5 30.58 5 35 C4.34 35 3.68 35 3 35 C3 35.99 3 36.98 3 38 C4.32 38.33 5.64 38.66 7 39 C7 39.33 7 39.66 7 40 C4.69 40 2.38 40 0 40 C0 26.8 0 13.6 0 0 Z " fill="#F6F6F6" transform="translate(0,18)"/>
<path d="M0 0 C-2.96687001 1.64826111 -5.65626525 2.44271087 -9 3 C-9 3.66 -9 4.32 -9 5 C-4.545 4.505 -4.545 4.505 0 4 C0.33 6.64 0.66 9.28 1 12 C-2.3 11.34 -5.6 10.68 -9 10 C-9 10.66 -9 11.32 -9 12 C-14.94 11.67 -20.88 11.34 -27 11 C-27 10.67 -27 10.34 -27 10 C-21.72 10 -16.44 10 -11 10 C-11.33 9.01 -11.66 8.02 -12 7 C-12.33 7.33 -12.66 7.66 -13 8 C-14.51928038 8.07179964 -16.04167482 8.08392007 -17.5625 8.0625 C-18.38878906 8.05347656 -19.21507812 8.04445313 -20.06640625 8.03515625 C-20.70449219 8.02355469 -21.34257812 8.01195312 -22 8 C-22 7.67 -22 7.34 -22 7 C-20.1128125 6.87625 -20.1128125 6.87625 -18.1875 6.75 C-14.76810567 6.3959824 -14.76810567 6.3959824 -12.3125 4.0625 C-11.6628125 3.0415625 -11.6628125 3.0415625 -11 2 C-7.27359493 -0.01427301 -4.19380562 -0.19506073 0 0 Z " fill="#929292" transform="translate(48,4)"/>
<path d="M0 0 C0.66 0 1.32 0 2 0 C4.48741673 4.79716084 4.29787213 9.35906531 4.25 14.625 C4.25773437 15.48351563 4.26546875 16.34203125 4.2734375 17.2265625 C4.27085938 18.0515625 4.26828125 18.8765625 4.265625 19.7265625 C4.26336914 20.47502441 4.26111328 21.22348633 4.25878906 21.99462891 C4 24 4 24 2 27 C3.65 27 5.3 27 7 27 C7 27.66 7 28.32 7 29 C4.69 29 2.38 29 0 29 C0 26.36 0 23.72 0 21 C-0.66 21 -1.32 21 -2 21 C-2.21850746 15.20955238 -1.57683566 10.00116668 -0.4375 4.3203125 C0.06176243 2.06597155 0.06176243 2.06597155 0 0 Z " fill="#C8C6C5" transform="translate(51,27)"/>
<path d="M0 0 C0.66 0 1.32 0 2 0 C3.45184478 4.53701494 4.23509196 8.18061476 4 13 C4.66 13 5.32 13 6 13 C6 20.59 6 28.18 6 36 C4.35 36 2.7 36 1 36 C1.33 35.01 1.66 34.02 2 33 C2.25168473 29.94203058 2.23128288 26.87976789 2.25 23.8125 C2.270625 22.98685547 2.29125 22.16121094 2.3125 21.31054688 C2.3492601 15.479476 1.18797624 11.38533885 -1 6 C-0.6875 2.5 -0.6875 2.5 0 0 Z " fill="#767373" transform="translate(52,18)"/>
<path d="M0 0 C1.9375 0.3125 1.9375 0.3125 4 1 C4.33 1.99 4.66 2.98 5 4 C6.32 4 7.64 4 9 4 C9.33 3.34 9.66 2.68 10 2 C9.6875 4.375 9.6875 4.375 9 7 C8.01 7.66 7.02 8.32 6 9 C5.58571654 10.93076478 5.58571654 10.93076478 5.70703125 13.1328125 C5.71669922 13.93847656 5.72636719 14.74414062 5.73632812 15.57421875 C5.7740332 16.83685547 5.7740332 16.83685547 5.8125 18.125 C5.82603516 18.97449219 5.83957031 19.82398437 5.85351562 20.69921875 C5.88891781 22.79974837 5.94272599 24.89995293 6 27 C4.68 27 3.36 27 2 27 C2 23.37 2 19.74 2 16 C2.33 16 2.66 16 3 16 C3 19.3 3 22.6 3 26 C3.66 26 4.32 26 5 26 C4.74309819 23.93571843 4.46886954 21.87358906 4.1875 19.8125 C4.03667969 18.66394531 3.88585937 17.51539062 3.73046875 16.33203125 C2.9895138 12.95216723 1.78769928 10.91472708 0 8 C-0.35975418 5.25147807 -0.14184108 2.7895412 0 0 Z " fill="#ADADAD" transform="translate(4,28)"/>
<path d="M0 0 C5.75 1.875 5.75 1.875 8 3 C8.625 5.5625 8.625 5.5625 9 8 C7.35 8 5.7 8 4 8 C4 10.64 4 13.28 4 16 C2.02 16 0.04 16 -2 16 C-2 14.02 -2 12.04 -2 10 C-1.360625 9.7525 -0.72125 9.505 -0.0625 9.25 C2.18741541 8.18437567 2.18741541 8.18437567 2.75 5.875 C2.8325 5.25625 2.915 4.6375 3 4 C2.01 4 1.02 4 0 4 C0 2.68 0 1.36 0 0 Z " fill="#BBBBBB" transform="translate(40,16)"/>
<path d="M0 0 C1.9375 1.3125 1.9375 1.3125 3 3 C3 3.99 3 4.98 3 6 C2.01 6 1.02 6 0 6 C0 6.66 0 7.32 0 8 C-2.64 8 -5.28 8 -8 8 C-8.33 7.01 -8.66 6.02 -9 5 C-9.99 5.66 -10.98 6.32 -12 7 C-11.75 4.625 -11.75 4.625 -11 2 C-7.71600386 -0.65245842 -4.0556593 -0.3686963 0 0 Z " fill="#858585" transform="translate(23,5)"/>
<path d="M0 0 C-0.165 0.495 -0.33 0.99 -0.5 1.5 C-1.59095226 6.95476131 -1.76648508 11.04587056 1 15.875 C3.61920777 20.50472641 3.38313313 24.80641759 3 30 C2.34 30 1.68 30 1 30 C0.93941406 29.32453125 0.87882813 28.6490625 0.81640625 27.953125 C0.73261719 27.06109375 0.64882812 26.1690625 0.5625 25.25 C0.48128906 24.36828125 0.40007813 23.4865625 0.31640625 22.578125 C0.03761535 20.30649548 -0.38790577 18.20148177 -1 16 C-1.66 16 -2.32 16 -3 16 C-5.09740836 12.85388747 -5.25328219 12.08811922 -5.1875 8.5 C-5.17783203 7.33984375 -5.17783203 7.33984375 -5.16796875 6.15625 C-5 4 -5 4 -4 1 C-2 0 -2 0 0 0 Z " fill="#6F6F6F" transform="translate(6,24)"/>
<path d="M0 0 C0 0.66 0 1.32 0 2 C0.64453125 2.23460937 1.2890625 2.46921875 1.953125 2.7109375 C4 4 4 4 4.609375 6.1640625 C4.65578125 6.97617187 4.7021875 7.78828125 4.75 8.625 C4.80671875 9.44226562 4.8634375 10.25953125 4.921875 11.1015625 C4.94765625 11.72804688 4.9734375 12.35453125 5 13 C4.01 13 3.02 13 2 13 C2 10.03 2 7.06 2 4 C-3.31343412 3.67431026 -3.31343412 3.67431026 -8.375 4.9375 C-10.94470975 8.19905468 -11.35700059 11.96433263 -12 16 C-12.66 16 -13.32 16 -14 16 C-12.89473684 6.78947368 -12.89473684 6.78947368 -11 3 C-7.0150619 0.7861455 -4.57448232 0 0 0 Z " fill="#E5E5E5" transform="translate(32,42)"/>
<path d="M0 0 C0.33 2.31 0.66 4.62 1 7 C-0.45903258 6.69078116 -1.91720722 6.37751201 -3.375 6.0625 C-4.18710937 5.88847656 -4.99921875 5.71445313 -5.8359375 5.53515625 C-8 5 -8 5 -10 4 C-10 3.01 -10 2.02 -10 1 C-6.59437148 0.22157062 -3.49234244 -0.09978121 0 0 Z " fill="#C0C0C0" transform="translate(48,9)"/>
<path d="M0 0 C0.99 0.495 0.99 0.495 2 1 C2 1.66 2 2.32 2 3 C2.66 3 3.32 3 4 3 C3.67 3.969375 3.34 4.93875 3 5.9375 C1.47119908 11.26119683 1.24412593 16.73237778 3 22 C3.66 22 4.32 22 5 22 C5 22.66 5 23.32 5 24 C4.01 24 3.02 24 2 24 C2 23.34 2 22.68 2 22 C1.34 22 0.68 22 0 22 C0 14.74 0 7.48 0 0 Z " fill="#E9E9E9" transform="translate(0,18)"/>
<path d="M0 0 C3.63 0 7.26 0 11 0 C11 1.32 11 2.64 11 4 C7.37 4 3.74 4 0 4 C0 2.68 0 1.36 0 0 Z " fill="#8F8F8F" transform="translate(21,28)"/>
<path d="M0 0 C2.02021295 3.30580301 2.21811297 6.18302301 2 10 C-0.89932357 7.60490662 -1.50168276 5.68754757 -2 2 C-6.455 2.495 -6.455 2.495 -11 3 C-11 2.34 -11 1.68 -11 1 C-6.98668157 -1.00665921 -4.30558651 -1.4351955 0 0 Z " fill="#6C6C6C" transform="translate(50,6)"/>
<path d="M0 0 C0.66 0 1.32 0 2 0 C2.5304408 2.26860837 3.04905434 4.53998489 3.5625 6.8125 C3.85253906 8.07707031 4.14257812 9.34164063 4.44140625 10.64453125 C5 14 5 14 4 17 C0.91496278 12.37244417 -1.19022694 8.13054177 -0.6875 2.5 C-0.460625 1.675 -0.23375 0.85 0 0 Z " fill="#626363" transform="translate(52,18)"/>
<path d="M0 0 C1.875 0.1875 1.875 0.1875 4 1 C5.25 3.5625 5.25 3.5625 6 6 C5 7.5 5 7.5 3 9 C0.28153765 9.27345479 -2.25677199 9.13491285 -5 9 C-3.625 7.5 -3.625 7.5 -2 6 C-1.34 6 -0.68 6 0 6 C0 4.02 0 2.04 0 0 Z " fill="#EAEAEA" transform="translate(31,2)"/>
<path d="M0 0 C0.33 0 0.66 0 1 0 C1.33 4.29 1.66 8.58 2 13 C4.97 13.33 7.94 13.66 11 14 C11 14.66 11 15.32 11 16 C9.58376784 16.05447047 8.16691809 16.09300508 6.75 16.125 C5.56664062 16.15980469 5.56664062 16.15980469 4.359375 16.1953125 C1.79268059 15.9828378 0.2083933 15.28654105 -2 14 C-2 13.01 -2 12.02 -2 11 C-1.34 11 -0.68 11 0 11 C0 7.37 0 3.74 0 0 Z " fill="#E4E4E4" transform="translate(5,42)"/>
<path d="M0 0 C0.66 0 1.32 0 2 0 C4.54748246 4.84422847 4.22816428 9.49160376 4.125 14.8125 C4.11597656 15.69615234 4.10695313 16.57980469 4.09765625 17.49023438 C4.07419637 19.66027359 4.03832865 21.83017247 4 24 C3.67 24 3.34 24 3 24 C3 18.72 3 13.44 3 8 C2.01 8.33 1.02 8.66 0 9 C0 6.03 0 3.06 0 0 Z " fill="#B6B6B5" transform="translate(51,27)"/>
<path d="M0 0 C0.99 0 1.98 0 3 0 C3 2.64 3 5.28 3 8 C1.35 8 -0.3 8 -2 8 C-2.125 5.125 -2.125 5.125 -2 2 C-1.34 1.34 -0.68 0.68 0 0 Z " fill="#6F6F6F" transform="translate(40,24)"/>
<path d="M0 0 C-0.3125 1.9375 -0.3125 1.9375 -1 4 C-1.99 4.33 -2.98 4.66 -4 5 C-4 4.34 -4 3.68 -4 3 C-7.12197478 4.3089572 -7.12197478 4.3089572 -9 7 C-8.34 7.33 -7.68 7.66 -7 8 C-7.99 8 -8.98 8 -10 8 C-10 8.66 -10 9.32 -10 10 C-10.99 10.33 -11.98 10.66 -13 11 C-10.87748702 4.63246105 -7.01981951 0 0 0 Z " fill="#AFAFAF" transform="translate(20,16)"/>
<path d="M0 0 C0.66 0.66 1.32 1.32 2 2 C2.66 1.67 3.32 1.34 4 1 C4 1.66 4 2.32 4 3 C4.66 3 5.32 3 6 3 C6.33 5.97 6.66 8.94 7 12 C5 10 5 10 4.875 7.375 C4.91625 6.59125 4.9575 5.8075 5 5 C4.34 5 3.68 5 3 5 C3 5.66 3 6.32 3 7 C0.53199953 5.84826645 -1.04783565 4.95216435 -3 3 C-2.01 3 -1.02 3 0 3 C0 2.01 0 1.02 0 0 Z " fill="#979797" transform="translate(49,13)"/>
<path d="M0 0 C0.66 1.32 1.32 2.64 2 4 C3.65 4 5.3 4 7 4 C7 5.32 7 6.64 7 8 C5.68 8 4.36 8 3 8 C3 8.66 3 9.32 3 10 C2.34 10 1.68 10 1 10 C0.67 6.7 0.34 3.4 0 0 Z " fill="#B3B3B3" transform="translate(14,24)"/>
<path d="M0 0 C2.97 0.495 2.97 0.495 6 1 C6 2.32 6 3.64 6 5 C3.69 5 1.38 5 -1 5 C-0.67 3.35 -0.34 1.7 0 0 Z " fill="#AFAFAF" transform="translate(16,8)"/>
<path d="M0 0 C1.33333333 0 2.66666667 0 4 0 C4.25 5.625 4.25 5.625 2 9 C1.34 9 0.68 9 0 9 C0 6.03 0 3.06 0 0 Z " fill="#E4E4E4" transform="translate(12,37)"/>
<path d="M0 0 C1.32 0 2.64 0 4 0 C4 1.98 4 3.96 4 6 C2.68 6.33 1.36 6.66 0 7 C0 4.69 0 2.38 0 0 Z " fill="#6F6F6F" transform="translate(10,24)"/>
<path d="M0 0 C0.66 0 1.32 0 2 0 C2 4.29 2 8.58 2 13 C1.34 13 0.68 13 0 13 C-0.19551338 11.39679026 -0.38111983 9.79237014 -0.5625 8.1875 C-0.71912109 6.84751953 -0.71912109 6.84751953 -0.87890625 5.48046875 C-1 3 -1 3 0 0 Z " fill="#E5E5E5" transform="translate(56,18)"/>
<path d="M0 0 C0.33 0.99 0.66 1.98 1 3 C0.34 3.66 -0.32 4.32 -1 5 C-1.71927295 7.31765729 -2.3909893 9.65095874 -3 12 C-3.99 12 -4.98 12 -6 12 C-4.68139111 7.38486888 -2.78644563 3.90102388 0 0 Z " fill="#5C5C5C" transform="translate(14,8)"/>
<path d="M0 0 C0 0.66 0 1.32 0 2 C-1.98 2 -3.96 2 -6 2 C-6.33 2.66 -6.66 3.32 -7 4 C-9.0625 5.125 -9.0625 5.125 -11 6 C-10.625 3.5625 -10.625 3.5625 -10 1 C-6.78548731 -0.60725635 -3.56387464 -0.05748185 0 0 Z " fill="#7E7E7E" transform="translate(22,6)"/>
<path d="M0 0 C2.64 0 5.28 0 8 0 C8 0.99 8 1.98 8 3 C5.69 3 3.38 3 1 3 C0.67 2.01 0.34 1.02 0 0 Z " fill="#767676" transform="translate(22,29)"/>
<path d="M0 0 C0.33 1.32 0.66 2.64 1 4 C-3.29 3.67 -7.58 3.34 -12 3 C-12 2.34 -12 1.68 -12 1 C-11.21753906 1.01160156 -10.43507813 1.02320313 -9.62890625 1.03515625 C-8.61699219 1.04417969 -7.60507812 1.05320312 -6.5625 1.0625 C-5.04849609 1.07990234 -5.04849609 1.07990234 -3.50390625 1.09765625 C-1.05978933 1.28612676 -1.05978933 1.28612676 0 0 Z " fill="#5D5D5D" transform="translate(36,10)"/>
<path d="M0 0 C1.32 0.33 2.64 0.66 4 1 C4 2.32 4 3.64 4 5 C3.01 4.67 2.02 4.34 1 4 C0.67 5.32 0.34 6.64 0 8 C0 5.36 0 2.72 0 0 Z " fill="#B0B0B0" transform="translate(4,28)"/>
<path d="M0 0 C0 3.20395416 -0.74335022 5.09399739 -2 8 C-1.34 8.33 -0.68 8.66 0 9 C-1.65 9.66 -3.3 10.32 -5 11 C-4.26023275 7.1532103 -2.81328141 2.81328141 0 0 Z " fill="#7E7E7E" transform="translate(10,12)"/>
<path d="M0 0 C0.33 0 0.66 0 1 0 C1.144375 1.093125 1.28875 2.18625 1.4375 3.3125 C1.88288104 6.93122987 1.88288104 6.93122987 3 10 C3.66 10 4.32 10 5 10 C5 10.66 5 11.32 5 12 C4.01 12 3.02 12 2 12 C2 11.34 2 10.68 2 10 C1.34 10 0.68 10 0 10 C0 6.7 0 3.4 0 0 Z " fill="#D3D3D3" transform="translate(0,30)"/>
<path d="M0 0 C0.33 0.66 0.66 1.32 1 2 C1.99 2.33 2.98 2.66 4 3 C2.68 3 1.36 3 0 3 C0 3.66 0 4.32 0 5 C0.66 5.33 1.32 5.66 2 6 C0.02 6.99 0.02 6.99 -2 8 C-2.125 5.125 -2.125 5.125 -2 2 C-1.34 1.34 -0.68 0.68 0 0 Z " fill="#848484" transform="translate(14,11)"/>
<path d="M0 0 C0.33 0 0.66 0 1 0 C1 4.62 1 9.24 1 14 C0.01 14 -0.98 14 -2 14 C-1.67 13.01 -1.34 12.02 -1 11 C-0.77820215 9.10787263 -0.59385985 7.21115528 -0.4375 5.3125 C-0.35371094 4.31863281 -0.26992188 3.32476562 -0.18359375 2.30078125 C-0.12300781 1.54152344 -0.06242187 0.78226563 0 0 Z " fill="#989694" transform="translate(55,40)"/>
<path d="M0 0 C1.32 0 2.64 0 4 0 C3.67 1.98 3.34 3.96 3 6 C2.01 5.34 1.02 4.68 0 4 C0 2.68 0 1.36 0 0 Z " fill="#CECECE" transform="translate(5,32)"/>
<path d="M0 0 C1.32 0 2.64 0 4 0 C3.6875 1.9375 3.6875 1.9375 3 4 C2.01 4.33 1.02 4.66 0 5 C-0.5625 3.0625 -0.5625 3.0625 -1 1 C-0.67 0.67 -0.34 0.34 0 0 Z " fill="#BFBFBF" transform="translate(16,16)"/>
</svg>
